HIERARCHY
ROOT Hips
{
    OFFSET 0.000000 0.000000 0.000000
    CHANNELS 6 Xposition Yposition Zposition Zrotation Xrotation Yrotation
    JOINT Spine
    {
        OFFSET -0.000000 6.993131 0.000000
        CHANNELS 3 Zrotation Xrotation Yrotation
        JOINT Spine1
        {
            OFFSET -0.000000 20.649729 0.000000
            CHANNELS 3 Zrotation Xrotation Yrotation
            JOINT Neck
            {
                OFFSET -0.000000 20.564924 1.869539
                CHANNELS 3 Zrotation Xrotation Yrotation
                JOINT Head
                {
                    OFFSET -0.000000 11.939490 -1.705642
                    CHANNELS 3 Zrotation Xrotation Yrotation
                    End Site
                    {
                        OFFSET -0.000000 21.320518 0.000000
                    }
                }
            }
            JOINT LeftShoulder
            {
                OFFSET 3.446977 19.850397 -0.038759
                CHANNELS 3 Zrotation Xrotation Yrotation
                JOINT LeftArm
                {
                    OFFSET 7.083611 0.000000 0.000000
                    CHANNELS 3 Zrotation Xrotation Yrotation
                    JOINT LeftForeArm
                    {
                        OFFSET 32.044487 0.000000 0.000000
                        CHANNELS 3 Zrotation Xrotation Yrotation
                        JOINT LeftHand
                        {
                            OFFSET 22.068741 0.000000 0.000000
                            CHANNELS 3 Zrotation Xrotation Yrotation
                            End Site
                            {
                                OFFSET 12.792312 0.000000 0.000000
                            }
                        }
                    }
                }
            }
            JOINT RightShoulder
            {
                OFFSET -3.365844 19.850397 -0.038759
                CHANNELS 3 Zrotation Xrotation Yrotation
                JOINT RightArm
                {
                    OFFSET -7.083611 0.000000 0.000000
                    CHANNELS 3 Zrotation Xrotation Yrotation
                    JOINT RightForeArm
                    {
                        OFFSET -32.044487 0.000000 0.000000
                        CHANNELS 3 Zrotation Xrotation Yrotation
                        JOINT RightHand
                        {
                            OFFSET -22.068741 0.000000 0.000000
                            CHANNELS 3 Zrotation Xrotation Yrotation
                            End Site
                            {
                                OFFSET -12.792312 0.000000 0.000000
                            }
                        }
                    }
                }
            }
        }
    }
    JOINT LeftUpLeg
    {
        OFFSET 8.528208 0.000000 0.000000
        CHANNELS 3 Zrotation Xrotation Yrotation
        JOINT LeftLeg
        {
            OFFSET -0.000000 -31.874865 0.000000
            CHANNELS 3 Zrotation Xrotation Yrotation
            JOINT LeftFoot
            {
                OFFSET -0.000000 -38.221939 0.000000
                CHANNELS 3 Zrotation Xrotation Yrotation
                JOINT LeftToeBase
                {
                    OFFSET -0.000000 -5.543335 12.792312
                    CHANNELS 3 Zrotation Xrotation Yrotation
                    End Site
                    {
                        OFFSET -0.000000 0.000000 3.411283
                    }
                }
            }
        }
    }
    JOINT RightUpLeg
    {
        OFFSET -8.528208 0.000000 0.000000
        CHANNELS 3 Zrotation Xrotation Yrotation
        JOINT RightLeg
        {
            OFFSET -0.000000 -31.874865 0.000000
            CHANNELS 3 Zrotation Xrotation Yrotation
            JOINT RightFoot
            {
                OFFSET -0.000000 -38.221939 0.000000
                CHANNELS 3 Zrotation Xrotation Yrotation
                JOINT RightToeBase
                {
                    OFFSET -0.000000 -5.543335 12.792312
                    CHANNELS 3 Zrotation Xrotation Yrotation
                    End Site
                    {
                        OFFSET -0.000000 0.000000 3.411283
                    }
                }
            }
        }
    }
}
MOTION
Frames:    11
Frame Time:    0.008333
-30.245129    68.104362    33.390045    4.052593    -1.869712    85.311195    -0.258590    2.965004    0.570495    -2.238793    10.374333    0.767037    15.268023    23.605593    -3.051358    -8.848494    -6.445522    -3.837403    8.209605    10.270554    -7.736245    -55.914707    58.202911    -18.504019    11.063418    -22.298780    -26.603188    14.249203    -20.194138    -2.930130    16.296434    9.776449    -4.184743    11.421820    51.972580    39.553303    -25.546509    -8.156902    32.190037    1.699829    -0.441333    15.870325    1.664486    -39.999050    -3.038106    156.269699    86.500938    -138.147705    -8.008529    -16.835249    -9.967239    0.000000    0.000000    0.000000    0.612224    -20.711840    -2.440156    18.490452    51.542847    -15.537651    -19.543791    -24.591158    -21.951477    0.000000    0.000000    0.000000    
-29.499182    68.467247    33.442600    4.056485    -1.794508    85.170311    0.020363    3.112982    0.576289    -2.990296    10.072163    0.840377    14.861214    23.566446    -2.842640    -8.301760    -6.099408    -3.522653    8.422280    10.414310    -7.312085    -57.316647    57.838291    -16.641884    11.515392    -21.053265    -27.706924    13.781760    -18.848419    -4.173755    16.085457    9.751856    -3.650401    11.346768    51.710503    39.475109    -27.048485    -7.371333    35.022766    2.699462    1.696606    15.838185    1.218637    -40.651638    -3.186305    117.014526    88.196686    -98.310043    -8.539879    -16.528692    -9.720221    0.000000    0.000000    0.000000    0.753325    -19.358459    -2.035041    17.927929    50.277039    -14.975058    -19.290592    -24.501677    -22.005907    0.000000    0.000000    0.000000    
-28.708115    68.935776    33.415798    4.067083    -1.559391    85.032829    -0.271741    3.000442    0.967417    -2.868267    10.187858    1.216070    15.075318    23.638201    -3.123275    -8.744533    -6.442160    -3.900301    8.234820    10.169591    -7.463987    -58.579605    57.564037    -14.922447    11.996165    -19.877619    -28.714207    13.046508    -17.536911    -5.343379    15.729721    9.531370    -4.070531    10.799521    51.382408    39.795124    -28.272003    -7.180942    37.675629    4.236208    3.266937    16.069904    0.476254    -41.100346    -3.777357    34.966190    87.646729    -16.196226    -8.677782    -15.773882    -8.563846    0.000000    0.000000    0.000000    0.627805    -17.801048    -2.015714    16.874371    48.755451    -13.942011    -19.014894    -24.247099    -21.846956    0.000000    0.000000    0.000000    
-27.953022    69.408379    33.405964    3.963712    -1.218954    84.821175    -0.264011    2.890788    1.060116    -3.496777    10.111640    1.362895    14.657053    23.575045    -2.886203    -8.328788    -6.275222    -3.598955    8.483371    10.252126    -7.066521    -59.718224    57.130112    -13.460097    12.239916    -18.929298    -29.752520    11.845608    -16.484724    -6.726972    15.454594    9.444443    -3.733560    10.561846    50.905704    39.881931    -28.702417    -7.079505    40.514683    5.294557    4.491841    15.932157    -0.203612    -41.373558    -4.059395    13.730067    84.809364    5.604737    -8.674669    -15.045739    -8.006408    0.000000    0.000000    0.000000    0.396291    -16.452625    -1.691196    16.253618    47.242504    -13.053514    -18.703413    -23.891941    -21.871298    0.000000    0.000000    0.000000    
-27.212965    69.847054    33.458374    3.854607    -1.140587    84.851074    -0.197082    2.737885    1.143084    -3.763484    10.214318    1.474931    14.116038    23.419668    -2.824279    -7.762790    -6.278542    -3.483803    8.468904    10.247164    -6.923471    -60.794514    56.224369    -11.835404    12.090288    -18.040331    -31.295111    12.394879    -15.527514    -7.133329    14.979911    9.306543    -3.621479    10.712461    50.170013    39.891350    -29.045807    -7.059107    43.185066    6.053699    5.533409    15.585680    -0.638239    -41.803036    -4.634227    6.866464    82.015366    12.511017    -8.872953    -14.179900    -7.269529    0.000000    0.000000    0.000000    0.473320    -15.030386    -1.768010    15.343843    45.688122    -11.903907    -18.266840    -23.485905    -21.863035    0.000000    0.000000    0.000000    
-26.379745    70.366753    33.436810    3.845902    -0.769136    84.624146    -0.339272    2.645808    1.403782    -4.187862    10.158972    1.768383    13.953152    23.417519    -2.784737    -7.660697    -6.291330    -3.435074    8.676416    10.074631    -6.940062    -62.310318    56.142841    -9.782062    12.169554    -17.709009    -32.616234    11.720193    -15.049435    -7.812692    14.735881    9.255403    -3.720853    10.403111    49.769360    40.111469    -29.064613    -7.535625    45.790432    6.389363    5.873302    15.066725    -1.227948    -41.737732    -5.277051    1.330133    78.658577    18.381575    -9.146000    -13.141329    -6.988779    0.000000    0.000000    0.000000    0.175771    -13.358048    -1.730815    14.435763    43.894135    -10.769799    -17.818592    -23.102213    -21.650410    0.000000    0.000000    0.000000    
-25.629580    70.861565    33.434669    3.666237    -0.459033    84.551903    -0.387241    2.349317    1.525240    -4.626553    10.336188    1.936017    13.845659    23.082914    -2.567472    -7.818897    -6.089650    -3.280320    8.759007    9.953005    -6.474531    -62.987785    56.126129    -8.506953    12.359084    -17.271919    -33.882030    10.757455    -14.397315    -8.404237    14.341921    9.037731    -3.527807    9.992038    49.813953    40.418507    -29.449867    -8.317542    48.037296    6.243649    5.904111    14.216982    -1.803601    -41.705299    -5.806438    -0.371775    75.196602    20.188120    -9.921394    -12.271766    -6.374537    0.000000    0.000000    0.000000    -0.026581    -11.882327    -1.753645    13.596004    42.003128    -10.005098    -16.932600    -22.720909    -21.140827    0.000000    0.000000    0.000000    
-24.940147    71.338257    33.452827    3.278415    -0.241721    84.524895    -0.255456    2.294467    1.670828    -5.298671    9.822704    2.121363    13.396569    23.022644    -2.567343    -6.955181    -5.954628    -3.141498    9.149437    9.804045    -6.355620    -64.413269    55.360268    -6.618753    12.154818    -16.450855    -35.383335    10.411354    -13.459484    -8.730851    14.199578    8.676764    -3.593822    9.294238    50.272873    40.949272    -29.889608    -8.901707    49.938446    6.151553    6.128099    14.087083    -2.325482    -42.018410    -6.399289    -1.408655    71.689919    21.684368    -10.500841    -10.916622    -5.885834    0.000000    0.000000    0.000000    -0.095794    -10.685168    -1.941149    12.706607    40.155304    -9.293691    -16.327383    -22.177906    -20.565981    0.000000    0.000000    0.000000    
-24.208099    71.847252    33.449547    2.945652    0.037285    84.415932    -0.086476    1.922998    1.704591    -6.027237    9.956739    2.228661    13.329069    22.717236    -2.268813    -7.248195    -5.925767    -2.930652    9.417510    9.803707    -5.816480    -65.008064    55.105232    -5.397709    12.099639    -15.813251    -37.074467    10.389909    -12.645748    -8.850109    13.695178    8.338462    -3.250039    8.335907    50.833401    41.783150    -31.230268    -9.732250    51.711643    7.538790    6.784408    14.532969    -2.750485    -42.033424    -6.797297    -2.360102    67.975128    23.107983    -11.210722    -9.972510    -5.576821    0.000000    0.000000    0.000000    -0.270435    -9.325251    -2.078286    11.904062    38.160770    -8.133452    -15.520618    -21.483480    -20.291403    0.000000    0.000000    0.000000    
-23.389261    72.355255    33.419437    2.603316    0.474303    83.971008    -0.045517    1.398307    1.952252    -6.840621    10.042538    2.553467    12.955492    22.765949    -2.089249    -6.890149    -6.261309    -2.711324    9.774469    9.833479    -5.479622    -65.890617    55.096214    -4.001747    12.606649    -15.344848    -38.349037    9.424445    -11.789364    -9.030835    13.301803    8.344652    -2.950608    7.694391    51.034451    42.378811    -31.753616    -10.444481    53.700974    6.323451    6.832490    13.274015    -3.121666    -41.819328    -6.972312    -2.965219    64.183403    24.225376    -11.096559    -8.843169    -5.238848    0.000000    0.000000    0.000000    -0.630314    -7.983137    -2.022762    11.150372    36.179295    -7.136675    -14.669950    -20.791412    -19.841433    0.000000    0.000000    0.000000    
-22.611591    72.824707    33.398289    2.266634    0.867504    83.697433    -0.144248    0.893929    2.239110    -7.227928    10.282645    2.889205    12.587162    22.241707    -1.933773    -6.827488    -6.004042    -2.610614    9.935468    9.761500    -5.348357    -66.636940    54.877975    -2.580004    12.917525    -14.767636    -40.010036    8.962345    -10.888303    -9.503279    12.572786    8.030167    -2.964582    7.209083    51.434399    43.044159    -33.176682    -11.156723    55.284103    7.007988    7.592315    13.293447    -3.467230    -41.583279    -7.150419    -3.345599    60.450409    24.558966    -11.345596    -7.727536    -4.501788    0.000000    0.000000    0.000000    -0.961532    -6.595223    -2.096194    10.473036    34.093510    -6.248685    -13.759908    -20.128132    -19.426195    0.000000    0.000000    0.000000    
